<svg xmlns="http://www.w3.org/2000/svg" viewBox="0 0 48 48" fill="none" aria-hidden="true">
  <title>Furuki Juku</title>
  <path fill="#00497a" d="M8 12c0-1.66 1.34-3 3-3h11v30H11c-1.66 0-3-1.34-3-3V12z"/>
  <path fill="#00a0e9" d="M26 9h11c1.66 0 3 1.34 3 3v24c0 1.66-1.34 3-3 3H26V9z"/>
  <path fill="#e8f7fd" d="M12 14h8v2h-8v-2zm0 5h8v2h-8v-2zm0 5h6v2h-6v-2z"/>
  <path fill="#b8e6fc" d="M28 14h8v2h-8v-2zm0 5h8v2h-8v-2zm0 5h8v2h-8v-2z"/>
  <circle cx="36" cy="11" r="5" fill="#f5a623"/>
  <circle cx="35" cy="10" r="1.5" fill="#fffce8" opacity=".9"/>
</svg>
